<svg xmlns="http://www.w3.org/2000/svg" viewBox="0 0 100 100">
 <rect width="100" height="100" rx="20" fill="#0a0a0b"/>
 <g fill="#e89f4a">
 <path d="m69.922 38.68c-0.78125 0-1.3984 1.0781-1.3984 2.4102 0 1.3281 0.62109 2.4102 1.3984 2.4102 0.78125 0 1.3906-1.0781 1.3906-2.4102-0.003906-1.3281-0.62109-2.4102-1.3906-2.4102z"/>
 <path d="m60.629 38.68c-0.76953 0-1.3906 1.0781-1.3906 2.4102 0 1.3281 0.62109 2.4102 1.3906 2.4102 0.76953 0 1.3711-1.0781 1.3711-2.4102 0-1.3281-0.58984-2.4102-1.3711-2.4102z"/>
 <path d="m77.109 79.398c-0.23828-0.19141-0.46094-0.35938-0.66016-0.53906-2.0977-1.9297-2.8711-5.9297-3.4492-8.8594l-0.10938-0.55859c-0.91016-4.6602-0.75-8.3398 0.46094-11.238v-0.003906c2.957-3.875 4.8047-8.4844 5.3477-13.328 0.21094-2.1953-0.046875-4.4141-0.75781-6.5 0.75781-7.4805-1.7422-12.191-1.8516-12.371-0.39844-0.72656-1.1172-1.2227-1.9414-1.3398-0.83203-0.10938-1.668 0.19141-2.2383 0.80859-1.3555 1.457-2.5664 3.0469-3.6094 4.7422-0.26172-0.050782-0.52734-0.089844-0.78906-0.10938-0.97266-0.10937-1.9531-0.10937-2.9219 0-1.043-1.6641-2.2422-3.2227-3.5898-4.6523-0.56641-0.61328-1.3906-0.91406-2.2188-0.80859-0.84375 0.097656-1.5898 0.59766-2 1.3398-1.4961 3.2266-2.1836 6.7695-2 10.32-2.4297-6.5-7.7227-14.301-18.93-14.301-0.21875-1.9492-0.23047-5.8086 2.7891-7.8008 2.1094-1.4453 4.8906-1.4453 7 0 1.0078 0.64844 1.9766 1.3555 2.8984 2.1211 0.76953 0.60156 1.5586 1.2188 2.4219 1.8203 5.2773 3.8789 12.078 5.0273 18.34 3.0977 2.1211-0.66797 3.3008-2.9336 2.6289-5.0586-0.67188-2.125-2.9375-3.3008-5.0586-2.6289-3.8906 1.1562-8.1016 0.39062-11.332-2.0703-0.67969-0.46875-1.3516-1-2.0586-1.5586-1.1719-0.95703-2.3945-1.8398-3.6719-2.6523-4.7344-3.0664-10.84-3.0273-15.539 0.10156-2.7578 1.8164-4.9648 4.3555-6.375 7.3398-1.4102 2.9883-1.9727 6.3047-1.625 9.5898 0 0.30078 0.089844 0.62109 0.14062 0.94922-2.0938 2.0586-3.5195 4.6953-4.1016 7.5703-2.8398 6.4883-1.2109 12.75 0.23047 18.27 0.89063 3.3789 1.7188 6.5781 1.1992 9-1.5508 7.3516-0.85156 17.078 3 20.641 1.5664 1.4336 3.5898 2.2617 5.7109 2.3281 1.0352 0.070312 2.0508-0.29297 2.8125-1 0.60156-0.64062 1.6602-2.4297-1.2812-5.2109-2.1797-2.0586-1.4805-8.5391-0.28906-13.461l0.39844 0.39062c0.44141 2.5117 1.3281 5.4102 3.1406 7.0703v0.003906c1.4609 1.3281 3.3438 2.0977 5.3203 2.168 0.85547 0.0625 1.6953-0.23047 2.3281-0.80859 0.24609-0.25781 0.41406-0.58203 0.48047-0.92969 2.4336 1.1172 4.9531 2.0273 7.5391 2.7188 0.23828 1 0.48047 2.1602 0.73828 3.4688 1.5039 7.3828 3.543 17.531 11.164 17.531 2.5117 0 4-0.58984 4.6797-1.8008 0.49219-1.0586 0.33203-2.3047-0.42188-3.1992-0.44922-0.63281-1.0078-1.1797-1.6484-1.6211-0.23047-0.17969-0.44141-0.33984-0.62109-0.5-2-1.8008-2.6992-5.6797-3.2383-8.5117l-0.10938-0.57031c-0.85156-4.3594-0.73828-7.8086 0.30859-10.539l0.55078-0.46094v0.14844c1.4805 7.1562 3.4688 17.055 10.578 17.055 2.25 0 3.6094-0.48047 4.1289-1.4688h0.003907c0.38672-0.875 0.23438-1.8984-0.39062-2.6211-0.41406-0.58594-0.92188-1.0977-1.5117-1.5117zm-15.648-13.34c-0.19531 0.16406-0.34766 0.375-0.44141 0.61328-1.4219 3.3711-1.6211 7.5195-0.60938 12.672l0.10156 0.55859c0.62891 3.2617 1.4883 7.7188 4.1914 10.211 0.28125 0.26172 0.55859 0.46875 0.82812 0.67969v-0.003907c0.37891 0.23828 0.71875 0.53906 1 0.89063-0.56641 0.12891-1.1445 0.1875-1.7227 0.17187-5.0781 0-6.8281-8.7109-8.1094-15.07-0.35938-1.7812-0.67188-3.3203-1-4.5703-1.4492-5 2.1484-10 2.1914-10.09 0.50781-0.69141 0.35938-1.6641-0.33203-2.1719-0.6875-0.50781-1.6602-0.35938-2.168 0.33203-2.0977 2.9922-3.1875 6.5742-3.1094 10.23-6.5469-1.8633-12.496-5.3828-17.281-10.223 2.4102-3.4023 3.75-7.4453 3.8398-11.617 0.089844-4.168-1.0703-8.2695-3.3281-11.773-0.5-0.69531-1.4727-0.85156-2.168-0.35156-0.69531 0.49609-0.85547 1.4688-0.35547 2.1641 2.0156 3.1484 2.9805 6.8516 2.7617 10.582-0.22266 3.7344-1.6172 7.2969-3.9883 10.188-0.10938 0.14453-0.19531 0.30859-0.25 0.48047-0.46094 1.4805-4.4102 14.629 0.42188 19.191l-0.003906-0.003906c0.28906 0.26562 0.54687 0.55859 0.78125 0.87109-1.4062-0.039062-2.7539-0.58203-3.7891-1.5312-2.6016-2.3906-3.5781-10.672-2.0781-17.719 0.67188-3.1797-0.26172-6.7109-1.2383-10.461-1.3906-5.3203-2.8203-10.828-0.32812-16.379h-0.007813c0.039063-0.089844 0.070313-0.18359 0.089844-0.28125 0.45312-2.5547 1.7773-4.875 3.75-6.5586l0.73828-0.58984-0.17969-0.92188c-0.12109-0.62891-0.21094-1.1484-0.26172-1.6211l0.003906 0.003907c-0.30078-2.7031 0.15234-5.4375 1.3047-7.8984 1.1484-2.4648 2.957-4.5625 5.2266-6.0625 3.7031-2.4609 8.5195-2.4844 12.25-0.058594 1.168 0.74609 2.293 1.5625 3.3672 2.4375 0.75 0.62109 1.4414 1.1211 2.2031 1.6211 4.0195 3.0195 9.2383 3.9414 14.047 2.4805 0.23438-0.082031 0.48828-0.058594 0.70312 0.058593 0.21875 0.10938 0.38281 0.30469 0.45703 0.53906 0.082031 0.23828 0.058594 0.49609-0.058594 0.71094-0.10938 0.22266-0.30469 0.38672-0.53906 0.46094-5.3633 1.6367-11.188 0.625-15.68-2.7305-0.78906-0.55078-1.5508-1.1484-2.2812-1.7188-1.0156-0.83984-2.082-1.6133-3.1914-2.3203-3.125-2.0625-7.1836-2.043-10.289 0.050781-5.9492 3.9297-4 12-3.8789 12.352l0.30859 1.2188 1.2617-0.058593c12-0.55859 16.551 9.1016 18.238 15.262-1.5 4.4102 3.8906 10.922 5 12.23v-0.003906c0.57812 0.53125 1.4609 0.54688 2.0586 0.039062 0.59766-0.51172 0.71875-1.3867 0.28125-2.0391-2.1719-2.4883-4.9102-6.8398-4.5-8.9414l0.30078-0.58984c0.42578-1.1719 1.0039-2.2812 1.7188-3.3008l0.30859-0.44141v-0.53125l0.003906 0.003907c-0.17188-2.9141 0.27344-5.832 1.3086-8.5586 1.2109 1.375 2.2773 2.8672 3.1914 4.457l0.57031 1 1.0898-0.23047c1.0078-0.21484 2.043-0.26953 3.0703-0.16797 0.49609 0.054687 0.98438 0.14844 1.4688 0.28125l1.1484 0.30859 0.58984-1c0.93359-1.6367 2.0312-3.1758 3.2695-4.5898 1.2227 3.2695 1.6289 6.7891 1.1836 10.25v0.37891l0.12891 0.35156c0.64453 1.7578 0.88281 3.6367 0.69922 5.5-0.83984 8.75-8.2188 16.449-14.289 21.348z"/>
 <path d="m66.66 46.512c-0.24219 0.11719-0.52734 0.11719-0.76953 0-0.29688-0.25781-0.48438-0.61328-0.53125-1v-0.089844-0.78125c0.55859-0.26953 0.98047-0.75391 1.1719-1.3398 0-0.32031-0.80078-0.57812-1.7891-0.57812-0.98828 0-1.8008 0.26172-1.8008 0.57812 0.19141 0.58984 0.61719 1.0742 1.1797 1.3398v0.73047c-0.0625 0.35938-0.24609 0.6875-0.51953 0.92969-0.24609 0.125-0.53516 0.125-0.78125 0-0.15234-0.0625-0.32812-0.0625-0.47656 0.003907-0.15234 0.066406-0.27344 0.19141-0.33203 0.34375-0.125 0.32031 0.03125 0.67578 0.34766 0.80078 0.29688 0.125 0.61719 0.19531 0.94141 0.19922 0.32031 0.003906 0.63672-0.082032 0.91797-0.23828 0.16406-0.10156 0.3125-0.22656 0.44141-0.37109 0.15234 0.22656 0.35547 0.41406 0.58984 0.55078 0.28125 0.16016 0.59766 0.24219 0.92188 0.23828 0.32031 0 0.64062-0.066406 0.9375-0.19922 0.15625-0.058594 0.27734-0.17578 0.34375-0.32422 0.066406-0.15234 0.070313-0.32422 0.007813-0.47656-0.13672-0.30469-0.49219-0.44531-0.80078-0.31641z"/>
 </g>
</svg>